<svg xmlns="http://www.w3.org/2000/svg" version="1.1" baseProfile="tiny" width="220mm" height="220mm" viewBox="0 0 220 220"><polyline id="DataStructures--from--Primes" points="170.224 76.3616 161.697 64.579 160.971 63.5765 162.061 64.3149 160.971 63.5765 161.332 64.843"/><polyline id="BinDeps--from--URIParser" points="103.439 126.474 107.803 133.37 108.464 134.416 107.422 133.611 108.464 134.416 108.183 133.129"/><polyline id="BinDeps--from--GSL" points="97.9137 142.751 105.034 140.682 106.223 140.337 105.16 141.114 106.223 140.337 104.909 140.249"/><polyline id="BinDeps--from--Cairo" points="148.678 161.309 116.859 142.214 115.798 141.577 117.091 141.828 115.798 141.577 116.627 142.6"/><polyline id="BinDeps--from--Gumbo" points="125.741 157.232 115.305 143.978 114.54 143.005 115.659 143.699 114.54 143.005 114.951 144.256"/><polyline id="BinDeps--from--HttpParser" points="114.702 118.088 112.338 132.448 112.137 133.669 111.893 132.375 112.137 133.669 112.782 132.521"/><polyline id="BinDeps--from--SHA" points="109.001 153.487 110.279 145.294 110.47 144.071 110.724 145.364 110.47 144.071 109.834 145.225"/><polyline id="JSON--from--FixedPointNumbers" points="138.467 46.0747 122.494 71.9313 121.844 72.9841 122.111 71.6946 121.844 72.9841 122.878 72.168"/><polyline id="JSON--from--Nullables" points="126.075 90.1346 122.221 83.1592 121.623 82.076 122.616 82.9414 121.623 82.076 121.827 83.377"/><polyline id="JSON--from--DataStructures" points="153.112 61.5415 124.968 74.7089 123.847 75.2333 124.777 74.3009 123.847 75.2333 125.158 75.1168"/><polyline id="JSON--from--OffsetArrays" points="150.004 96.2942 124.632 80.8481 123.575 80.2046 124.866 80.4633 123.575 80.2046 124.398 81.2327"/><polyline id="Homebrew--from--BinDeps" points="106.073 139.658 79.2351 143.738 78.0117 143.924 79.1674 143.292 78.0117 143.924 79.3027 144.183"/><polyline id="Homebrew--from--JSON" points="116.09 81.805 76.4913 139.356 75.7898 140.376 76.1202 139.101 75.7898 140.376 76.8623 139.612"/><polyline id="Requests--from--URIParser" points="101.312 116.801 103.51 100.177 103.673 98.9498 103.957 100.236 103.673 98.9498 103.064 100.118"/><polyline id="Requests--from--MbedTLS" points="85.3998 118.319 100.391 98.879 101.146 97.8991 100.747 99.1541 101.146 97.8991 100.034 98.604"/><polyline id="Requests--from--Codecs" points="81.7153 75.9683 99.2441 89.7138 100.218 90.4774 98.9662 90.0682 100.218 90.4774 99.5221 89.3594"/><polyline id="Requests--from--HttpCommon" points="98.8145 98.9583 99.6297 98.1899 100.53 97.3411 99.9386 98.5176 100.53 97.3411 99.3207 97.8622"/><polyline id="Requests--from--HttpParser" points="112.901 108.343 107.644 99.3445 107.02 98.276 108.033 99.1173 107.02 98.276 107.255 99.5717"/><polyline id="Requests--from--JSON" points="115.542 81.3716 108.727 88.904 107.897 89.8217 108.393 88.6019 107.897 89.8217 109.061 89.2062"/><polyline id="Requests--from--Libz" points="147.367 120.747 109.871 97.1884 108.823 96.5301 110.111 96.8071 108.823 96.5301 109.631 97.5698"/><polyline id="WinRPM--from--URIParser" points="105.151 124.712 118.954 132.908 120.018 133.54 118.724 133.296 120.018 133.54 119.184 132.521"/><polyline id="WinRPM--from--HTTPClient" points="133.1 119.27 127.476 130.422 126.919 131.526 127.074 130.219 126.919 131.526 127.878 130.624"/><polyline id="WinRPM--from--LibExpat" points="89.7394 164.236 119.479 140.308 120.443 139.532 119.761 140.658 120.443 139.532 119.196 139.957"/><polyline id="WinRPM--from--BinDeps" points="116.447 137.84 118.167 137.498 119.381 137.257 118.255 137.94 119.381 137.257 118.079 137.056"/><polyline id="WinRPM--from--SHA" points="111.291 154.434 120.718 141.488 121.446 140.488 121.082 141.753 121.446 140.488 120.354 141.223"/><polyline id="WinRPM--from--Libz" points="147.05 125.769 130.446 133.488 129.324 134.009 130.256 133.079 129.324 134.009 130.636 133.896"/><polyline id="MbedTLS--from--Homebrew" points="74.8521 139.862 79.654 128.484 80.1352 127.344 80.069 128.659 80.1352 127.344 79.2391 128.309"/><polyline id="MbedTLS--from--BinDeps" points="106.691 136.283 87.8521 125.681 86.7737 125.074 88.073 125.289 86.7737 125.074 87.6312 126.074"/><polyline id="HttpCommon--from--URIParser" points="99.1551 116.964 96.7933 108.819 96.4487 107.631 97.2259 108.694 96.4487 107.631 96.3608 108.945"/><polyline id="HttpCommon--from--Nullables" points="123.492 95.9388 101.317 101.098 100.112 101.378 101.215 100.659 100.112 101.378 101.42 101.536"/><polyline id="Libz--from--BaseTestNext" points="166.167 138.335 156.355 128.219 155.494 127.33 156.679 127.905 155.494 127.33 156.032 128.532"/><polyline id="Libz--from--BufferedStreams" points="169.872 117.179 157.961 121.383 156.794 121.795 157.811 120.959 156.794 121.795 158.111 121.808"/><polyline id="HttpServer--from--FactCheck" points="40.6756 123.687 72.3256 96.0767 73.2581 95.2632 72.6216 96.4161 73.2581 95.2632 72.0295 95.7373"/><polyline id="HttpServer--from--MbedTLS" points="81.3435 117.291 78.2644 98.2223 78.0671 97.0006 78.709 98.1505 78.0671 97.0006 77.8198 98.2941"/><polyline id="HttpServer--from--Requests" points="99.1087 93.3546 83.716 92.2614 82.4817 92.1737 83.7479 91.8121 82.4817 92.1737 83.6841 92.7106"/><polyline id="HttpServer--from--HttpCommon" points="90.4782 99.8394 82.7889 95.1745 81.7309 94.5327 83.0225 94.7895 81.7309 94.5327 82.5553 95.5596"/><polyline id="HttpServer--from--HttpParser" points="110.943 110.352 82.9266 94.9364 81.8424 94.3398 83.1437 94.5418 81.8424 94.3398 82.7095 95.331"/><polyline id="Primes--from--DataStructures" points="160.971 63.5765 169.499 75.3591 170.224 76.3616 169.134 75.6232 170.224 76.3616 169.863 75.095"/><polyline id="BufferedStreams--from--BaseTestNext" points="170.805 136.939 173.64 121.819 173.868 120.602 174.083 121.902 173.868 120.602 173.197 121.736"/><polyline id="Gumbo--from--AbstractTrees" points="113.203 174.459 123.991 165.521 124.944 164.731 124.278 165.868 124.944 164.731 123.703 165.174"/><polyline id="Gumbo--from--BinDeps" points="114.54 143.005 124.976 156.26 125.741 157.232 124.622 156.538 125.741 157.232 125.33 155.981"/><polyline id="HttpParser--from--HttpCommon" points="99.6902 104.933 109.743 109.975 110.849 110.529 109.541 110.377 110.849 110.529 109.945 109.572"/><polyline id="HttpParser--from--BinDeps" points="112.137 133.669 114.501 119.309 114.702 118.088 114.945 119.383 114.702 118.088 114.057 119.236"/><polyline id="WebSockets--from--MbedTLS" points="78.1741 119.074 54.1172 98.5736 53.1754 97.771 54.4094 98.2308 53.1754 97.771 53.8251 98.9164"/><polyline id="WebSockets--from--Codecs" points="72.9785 75.299 55.4192 85.1694 54.3405 85.7757 55.1985 84.7767 54.3405 85.7757 55.6399 85.562"/><polyline id="WebSockets--from--HttpCommon" points="89.8522 101.374 56.621 93.6147 55.416 93.3333 56.7235 93.1761 55.416 93.3333 56.5186 94.0533"/><polyline id="WebSockets--from--HttpServer" points="71.9619 91.6589 56.9251 91.2544 55.6881 91.2212 56.9373 90.8042 55.6881 91.2212 56.913 91.7047"/><polyline id="Blink--from--WebSockets" points="55.3283 88.1937 88.9723 79.1164 90.167 78.7941 89.0896 79.5512 90.167 78.7941 88.855 78.6816"/><polyline id="Blink--from--Mux" points="80.3177 102.138 91.8885 82.9894 92.5285 81.9303 92.274 83.2223 92.5285 81.9303 91.503 82.7565"/><polyline id="Blink--from--BinDeps" points="109.952 133.77 96.8946 83.7162 96.5822 82.5189 97.3304 83.6026 96.5822 82.5189 96.4588 83.8299"/><polyline id="Blink--from--HttpServer" points="81.3453 88.5158 90.1674 81.4784 91.1348 80.7067 90.4483 81.8305 91.1348 80.7067 89.8866 81.1263"/><polyline id="Blink--from--JSON" points="113.808 77.4558 101.758 77.4338 100.52 77.4316 101.758 76.9834 100.52 77.4316 101.757 77.8842"/><polyline id="LibCURL--from--BinDeps" points="116.517 139.44 136.78 141.66 138.01 141.795 136.731 142.108 138.01 141.795 136.829 141.213"/><polyline id="LibCURL--from--WinRPM" points="129.552 137.873 137.066 140.34 138.241 140.726 136.925 140.768 138.241 140.726 137.206 139.912"/><polyline id="HTTPClient--from--JSON" points="121.205 82.2834 132.842 108.617 133.343 109.748 132.43 108.799 133.343 109.748 133.254 108.435"/><polyline id="HTTPClient--from--LibCURL" points="141.828 137.296 137.224 120.831 136.89 119.639 137.657 120.71 136.89 119.639 136.79 120.952"/><polyline id="GSL--from--Homebrew" points="78.0699 144.585 86.3524 144.381 87.5895 144.35 86.3635 144.831 87.5895 144.35 86.3413 143.931"/><polyline id="GSL--from--BinDeps" points="106.223 140.337 99.102 142.405 97.9137 142.751 98.9763 141.973 97.9137 142.751 99.2276 142.838"/><polyline id="GSL--from--WinRPM" points="119.439 137.518 99.1629 142.63 97.963 142.933 99.0528 142.193 97.963 142.933 99.273 143.067"/><polyline id="Mux--from--URIParser" points="96.2414 119.098 83.0033 110.259 81.9742 109.572 83.2534 109.884 81.9742 109.572 82.7532 110.633"/><polyline id="Mux--from--WebSockets" points="54.6386 95.5298 71.739 103.811 72.8527 104.351 71.5427 104.217 72.8527 104.351 71.9353 103.406"/><polyline id="Mux--from--Requests" points="99.619 96.0172 83.4519 103.819 82.3374 104.357 83.2561 103.414 82.3374 104.357 83.6476 104.225"/><polyline id="Mux--from--HttpCommon" points="89.8532 103.774 83.9268 105.162 82.722 105.445 83.8241 104.724 82.722 105.445 84.0296 105.601"/><polyline id="Mux--from--HttpServer" points="77.3573 97.0664 77.4332 100.144 77.4637 101.381 76.9829 100.155 77.4637 101.381 77.8834 100.133"/><polyline id="PlotlyJS--from--Blink" points="100.187 75.5789 126.352 65.8061 127.511 65.3731 126.51 66.228 127.511 65.3731 126.194 65.3842"/><polyline id="PlotlyJS--from--JSON" points="122.722 73.6645 127.942 68.2239 128.799 67.331 128.267 68.5358 128.799 67.331 127.617 67.9121"/><polyline id="Atom--from--Blink" points="98.7079 73.446 113.422 56.5146 114.234 55.5806 113.762 56.81 114.234 55.5806 113.082 56.2192"/><polyline id="Atom--from--JSON" points="118.794 72.2055 118.037 58.1002 117.971 56.8646 118.487 58.0761 117.971 56.8646 117.587 58.1244"/><polyline id="Pages--from--PlotlyJS" points="135.999 67.4181 142.56 74.5962 143.395 75.5096 142.228 74.9 143.395 75.5096 142.893 74.2923"/><polyline id="Pages--from--JSON" points="124.331 77.8297 140.46 78.9478 141.694 79.0334 140.428 79.3971 141.694 79.0334 140.491 78.4985"/><polyline id="Escher--from--WebSockets" points="49.5664 100.506 57.6268 117.996 58.1448 119.12 57.2178 118.184 58.1448 119.12 58.0359 117.807"/><polyline id="Escher--from--JSON" points="114.944 80.7327 65.4519 119.869 64.4812 120.636 65.1725 119.516 64.4812 120.636 65.7312 120.222"/><polyline id="Escher--from--FactCheck" points="41.9248 126.433 53.905 124.788 55.1309 124.62 53.9662 125.235 55.1309 124.62 53.8437 124.342"/><polyline id="Escher--from--Mux" points="73.8702 110.373 64.9474 119.302 64.0727 120.178 64.6288 118.984 64.0727 120.178 65.266 119.621"/><polyline id="D3Trees--from--Blink" points="93.0741 72.6261 86.7495 58.703 86.2377 57.5764 87.1595 58.5168 86.2377 57.5764 86.3394 58.8893"/><polyline id="D3Trees--from--JSON" points="114.77 74.4305 89.3758 56.5285 88.3644 55.8155 89.6353 56.1604 88.3644 55.8155 89.1163 56.8966"/><polyline id="DataVoyager--from--Blink" points="95.7367 72.1768 98.0865 46.7146 98.2003 45.4824 98.535 46.756 98.2003 45.4824 97.6381 46.6732"/><polyline id="DataVoyager--from--JSON" points="116.545 72.8456 101.809 45.9423 101.215 44.857 102.204 45.726 101.215 44.857 101.414 46.1587"/><polyline id="HeadlessChromium--from--WebSockets" points="49.8708 81.5164 58.7003 63.8691 59.254 62.7624 59.1031 64.0706 59.254 62.7624 58.2975 63.6676"/><polyline id="HeadlessChromium--from--HttpServer" points="75.0154 87.02 64.3427 63.9552 63.823 62.8322 64.7514 63.7661 63.823 62.8322 63.9339 64.1443"/><polyline id="HeadlessChromium--from--JSON" points="114.085 75.7795 67.7737 60.1337 66.6013 59.7376 67.9178 59.707 66.6013 59.7376 67.6295 60.5604"/><polyline id="ECharts--from--Atom" points="118.172 46.3594 119.051 36.8182 119.164 35.586 119.499 36.8596 119.164 35.586 118.602 36.7769"/><polyline id="Plotly--from--PlotlyJS" points="127.179 63.6054 110.542 63.8433 109.304 63.861 110.535 63.393 109.304 63.861 110.548 64.2937"/><polyline id="Plotly--from--Requests" points="104.305 88.4606 104.108 70.4409 104.095 69.2035 104.559 70.436 104.095 69.2035 103.658 70.4458"/><polyline id="Plotly--from--JSON" points="115.16 73.9425 108.873 68.287 107.953 67.4594 109.174 67.9522 107.953 67.4594 108.572 68.6218"/>
<desc>Template for drawing, editing and updating node graph layouts</desc>
    <defs>
    <style>
             /* brown-cyan color scheme https://github.com/cormullion/ColorSchemes.jl
                 starting brown, lightest at co5 and co6, blue at 9 */ 
            :root {--co1: rgb(89,51,22);
            --co2: rgb(143,107,74);
            --co3: rgb(186,157,131);
            --co4: rgb(210,195,178);
            --co5: rgb(213,225,219);
            --co6: rgb(194,239,243);
            --co7: rgb(163,236,248);
            --co8: rgb(129,218,239);
            --co9: rgb(87,166,197);
				}
                 svg {font-family: Verdana,sans-serif;font-size:4px;
                        margin:0 0 0 0;
                        background:var(--co1);
                        text-anchor:middle;
                     /* fill in svg corresponds to color in html css. could also use inherit current color for more flexibility.*/ 
                        fill:var(--co7);
						-moz-user-select: none;
						-ms-user-select: none;
						user-select: none;
             /* redefined for specific elements below*/ 
                        stroke:var(--co4); 
                        }
                text {stroke-width:0em; transform:translate(0, .3em);pointer-events: all;}
                text:hover {stroke-width:0.05em;stroke:var(--co6);visibility:visible}
                circle {stroke:var(--co2);fill:var(--co3);fill-opacity:0.6;stroke-width:.05em;stroke-opacity:0.6; r:4em;}
				circle.co1{stroke:var(--co1);fill:var(--co1)}
				circle.co2{stroke:var(--co1);fill:var(--co2)}
				circle.co3{stroke:var(--co2);fill:var(--co3)}
				circle.co4{stroke:var(--co3);fill:var(--co4)}
				circle.co5{stroke:var(--co4);fill:var(--co5)}
				circle.co6{stroke:var(--co5);fill:var(--co6)}
				circle.co7{stroke:var(--co6);fill:var(--co7)}
				circle.co8{stroke:var(--co7);fill:var(--co8)}
				circle.co9{stroke:var(--co8);fill:var(--co9)}
                polyline {fill:none;stroke:var(--co2);stroke-width:.05em;}
                polyline:hover {stroke-width:.4em;}
				polyline.co1{stroke:var(--co1)}
				polyline.co2{stroke:var(--co1)}
				polyline.co3{stroke:var(--co2)}
				polyline.co4{stroke:var(--co3)}
				polyline.co5{stroke:var(--co4)}
				polyline.co6{stroke:var(--co5)}
				polyline.co7{stroke:var(--co6)}
				polyline.co8{stroke:var(--co7)}
				polyline.co9{stroke:var(--co8)}
                g {
                    cursor: move; /* fallback: no `url()` support or images disabled */
                    cursor: url(images/grab.cur); /* fallback: Internet Explorer */
                    cursor: -webkit-grab; /* Chrome 1-21, Safari 4+ */
                    cursor:    -moz-grab; /* Firefox 1.5-26 */
                    cursor:         grab; /* W3C standards syntax, should come least */
                }
                g:active {
                    cursor: url(images/grabbing.cur);
                    cursor: -webkit-grabbing;
                    cursor:    -moz-grabbing;
                    cursor:         grabbing;
                            }
                 rect {stroke:var(--co1);fill:var(--co2);fill-opacity:0.6;stroke-width:.05em;}   
                </style>
    </defs>
  <rect width="10%" height="100%" class="moveoverrequestupdate"/>
  <rect width="10%" height="100%" class="moveoverrequestupdate" x="197.48"/>

<g id="Plotly" transform="matrix(1 0 0 1 104.037 63.9364)" data-from="[&quot;JSON&quot;,&quot;Requests&quot;,&quot;PlotlyJS&quot;]"><circle/><text>Plotly</text></g><g id="ECharts" transform="matrix(1 0 0 1 119.648 30.3407)" data-from="[&quot;Atom&quot;]"><circle/><text>ECharts</text></g><g id="HeadlessChromium" transform="matrix(1 0 0 1 61.6109 58.0517)" data-from="[&quot;JSON&quot;,&quot;HttpServer&quot;,&quot;WebSockets&quot;]"><circle/><text>HeadlessChromium</text></g><g id="DataVoyager" transform="matrix(1 0 0 1 98.6843 40.2372)" data-from="[&quot;JSON&quot;,&quot;Blink&quot;]"><circle/><text>DataVoyager</text></g><g id="D3Trees" transform="matrix(1 0 0 1 84.0591 52.7805)" data-from="[&quot;JSON&quot;,&quot;Blink&quot;]"><circle/><text>D3Trees</text></g><g id="Escher" transform="matrix(1 0 0 1 60.3495 123.904)" data-from="[&quot;Mux&quot;,&quot;FactCheck&quot;,&quot;JSON&quot;,&quot;WebSockets&quot;]"><circle/><text>Escher</text></g><g id="Pages" transform="matrix(1 0 0 1 146.949 79.3977)" data-from="[&quot;JSON&quot;,&quot;PlotlyJS&quot;]"><circle/><text>Pages</text></g><g id="Atom" transform="matrix(1 0 0 1 117.689 51.6046)" data-to="[&quot;ECharts&quot;]" data-from="[&quot;JSON&quot;,&quot;Blink&quot;]"><circle/><text>Atom</text></g><g id="PlotlyJS" transform="matrix(1 0 0 1 132.446 63.53)" data-to="[&quot;Plotly&quot;,&quot;Pages&quot;]" data-from="[&quot;JSON&quot;,&quot;Blink&quot;]"><circle/><text>PlotlyJS</text></g><g id="Mux" transform="matrix(1 0 0 1 77.5935 106.647)" data-to="[&quot;Escher&quot;,&quot;Blink&quot;]" data-from="[&quot;HttpServer&quot;,&quot;HttpCommon&quot;,&quot;Requests&quot;,&quot;WebSockets&quot;,&quot;URIParser&quot;]"><circle/><text>Mux</text></g><g id="LibExpat" transform="matrix(1 0 0 1 85.6355 167.538)" data-to="[&quot;WinRPM&quot;]" data-from="[]"><circle class="co2"/><text>LibExpat</text></g><g id="GSL" transform="matrix(1 0 0 1 92.8554 144.22)" data-to="[&quot;BinDeps&quot;]" data-from="[&quot;WinRPM&quot;,&quot;BinDeps&quot;,&quot;Homebrew&quot;]"><circle class="co2"/><text>GSL</text></g><g id="HTTPClient" transform="matrix(1 0 0 1 135.472 114.566)" data-to="[&quot;WinRPM&quot;]" data-from="[&quot;LibCURL&quot;,&quot;JSON&quot;]"><circle class="co2"/><text>HTTPClient</text></g><g id="LibCURL" transform="matrix(1 0 0 1 143.246 142.369)" data-to="[&quot;HTTPClient&quot;]" data-from="[&quot;WinRPM&quot;,&quot;BinDeps&quot;]"><circle class="co2"/><text>LibCURL</text></g><g id="Blink" transform="matrix(1 0 0 1 95.2527 77.4219)" data-to="[&quot;DataVoyager&quot;,&quot;D3Trees&quot;,&quot;Atom&quot;,&quot;PlotlyJS&quot;]" data-from="[&quot;JSON&quot;,&quot;HttpServer&quot;,&quot;BinDeps&quot;,&quot;Mux&quot;,&quot;WebSockets&quot;]"><circle/><text>Blink</text></g><g id="WebSockets" transform="matrix(2 0 0 2 45.157 90.9379)" data-to="[&quot;HeadlessChromium&quot;,&quot;Escher&quot;,&quot;Mux&quot;,&quot;Blink&quot;]" data-from="[&quot;HttpServer&quot;,&quot;HttpCommon&quot;,&quot;Codecs&quot;,&quot;MbedTLS&quot;]"><circle class="co5" r="2"/><text>WebSockets</text></g><g id="HttpParser" transform="matrix(1 0 0 1 115.558 112.891)" data-to="[&quot;HttpServer&quot;,&quot;Requests&quot;,&quot;BinDeps&quot;]" data-from="[&quot;BinDeps&quot;,&quot;HttpCommon&quot;]"><circle class="co2"/><text>HttpParser</text></g><g id="Codecs" transform="matrix(1 0 0 1 77.5703 72.7179)" data-to="[&quot;WebSockets&quot;,&quot;Requests&quot;]" data-from="[]"><circle class="co2"/><text>Codecs</text></g><g id="Gumbo" transform="matrix(1 0 0 1 129 161.371)" data-to="[&quot;BinDeps&quot;]" data-from="[&quot;BinDeps&quot;,&quot;AbstractTrees&quot;]"><circle class="co2"/><text>Gumbo</text></g><g id="Nullables" transform="matrix(1 0 0 1 128.623 94.7452)" data-to="[&quot;HttpCommon&quot;,&quot;JSON&quot;]" data-from="[]"><circle class="co2"/><text>Nullables</text></g><g id="BufferedStreams" transform="matrix(1 0 0 1 174.839 115.425)" data-to="[&quot;Libz&quot;]" data-from="[&quot;BaseTestNext&quot;]"><circle class="co2"/><text>BufferedStreams</text></g><g id="AbstractTrees" transform="matrix(1 0 0 1 109.147 177.819)" data-to="[&quot;Gumbo&quot;]" data-from="[]"><circle class="co2"/><text>AbstractTrees</text></g><g id="Primes" transform="matrix(1 0 0 1 173.312 80.6287)" data-to="[&quot;DataStructures&quot;]" data-from="[&quot;DataStructures&quot;]"><circle class="co2"/><text>Primes</text></g><g id="SHA" transform="matrix(1 0 0 1 108.19 158.692)" data-to="[&quot;WinRPM&quot;,&quot;BinDeps&quot;]"><circle class="co2"/><text>SHA</text></g><g id="HttpServer" transform="matrix(1 0 0 1 77.2274 91.8005)" data-to="[&quot;HeadlessChromium&quot;,&quot;Mux&quot;,&quot;Blink&quot;,&quot;WebSockets&quot;]" data-from="[&quot;HttpParser&quot;,&quot;HttpCommon&quot;,&quot;Requests&quot;,&quot;MbedTLS&quot;,&quot;FactCheck&quot;]"><circle class="co2"/><text>HttpServer</text></g><g id="Libz" transform="matrix(1 0 0 1 151.827 123.549)" data-to="[&quot;WinRPM&quot;,&quot;Requests&quot;]" data-from="[&quot;BufferedStreams&quot;,&quot;BaseTestNext&quot;]"><circle class="co2"/><text>Libz</text></g><g id="HttpCommon" transform="matrix(1 0 0 1 94.9817 102.572)" data-to="[&quot;Mux&quot;,&quot;WebSockets&quot;,&quot;HttpParser&quot;,&quot;HttpServer&quot;,&quot;Requests&quot;]" data-from="[&quot;Nullables&quot;,&quot;URIParser&quot;]"><circle class="co2"/><text>HttpCommon</text></g><g id="MbedTLS" transform="matrix(1 0 0 1 82.1833 122.491)" data-to="[&quot;WebSockets&quot;,&quot;HttpServer&quot;,&quot;Requests&quot;]" data-from="[&quot;BinDeps&quot;,&quot;Homebrew&quot;]"><circle class="co2"/><text>MbedTLS</text></g><g id="URIParser" transform="matrix(1 0 0 1 100.622 122.023)" data-to="[&quot;Mux&quot;,&quot;HttpCommon&quot;,&quot;WinRPM&quot;,&quot;Requests&quot;,&quot;BinDeps&quot;]"><circle class="co2"/><text>URIParser</text></g><g id="Cairo" transform="matrix(1 0 0 1 153.195 164.019)" data-to="[&quot;BinDeps&quot;]"><circle class="co2"/><text>Cairo</text></g><g id="OffsetArrays" transform="matrix(1 0 0 1 154.503 99.0333)" data-to="[&quot;JSON&quot;]" data-from="[]"><circle class="co2"/><text>OffsetArrays</text></g><g id="BaseTestNext" transform="matrix(1 0 0 1 169.834 142.117)" data-to="[&quot;BufferedStreams&quot;,&quot;Libz&quot;]"><circle class="co2"/><text>BaseTestNext</text></g><g id="WinRPM" transform="matrix(1 0 0 1 124.547 136.23)" data-to="[&quot;GSL&quot;,&quot;LibCURL&quot;]" data-from="[&quot;Libz&quot;,&quot;SHA&quot;,&quot;BinDeps&quot;,&quot;LibExpat&quot;,&quot;HTTPClient&quot;,&quot;URIParser&quot;]"><circle class="co2"/><text>WinRPM</text></g><g id="FixedPointNumbers" transform="matrix(1 0 0 1 141.235 41.5933)" data-to="[&quot;JSON&quot;]" data-from="[]"><circle class="co2"/><text>FixedPointNumbers</text></g><g id="Requests" transform="matrix(1 0 0 1 104.363 93.7278)" data-to="[&quot;Plotly&quot;,&quot;Mux&quot;,&quot;HttpServer&quot;]" data-from="[&quot;Libz&quot;,&quot;JSON&quot;,&quot;HttpParser&quot;,&quot;HttpCommon&quot;,&quot;Codecs&quot;,&quot;MbedTLS&quot;,&quot;URIParser&quot;]"><circle class="co2"/><text>Requests</text></g><g id="Homebrew" transform="matrix(1 0 0 1 72.804 144.715)" data-to="[&quot;GSL&quot;,&quot;MbedTLS&quot;]" data-from="[&quot;JSON&quot;,&quot;BinDeps&quot;]"><circle class="co2"/><text>Homebrew</text></g><g id="FactCheck" transform="matrix(1 0 0 1 36.7062 127.149)" data-to="[&quot;Escher&quot;,&quot;HttpServer&quot;]" data-from="[]"><circle class="co2"/><text>FactCheck</text></g><g id="JSON" transform="matrix(1 0 0 1 119.076 77.4655)" data-to="[&quot;Plotly&quot;,&quot;HeadlessChromium&quot;,&quot;DataVoyager&quot;,&quot;D3Trees&quot;,&quot;Escher&quot;,&quot;Pages&quot;,&quot;Atom&quot;,&quot;PlotlyJS&quot;,&quot;HTTPClient&quot;,&quot;Blink&quot;,&quot;Requests&quot;,&quot;Homebrew&quot;]" data-from="[&quot;OffsetArrays&quot;,&quot;DataStructures&quot;,&quot;Nullables&quot;,&quot;FixedPointNumbers&quot;]"><circle class="co2"/><text>JSON</text></g><g id="BinDeps" transform="matrix(1 0 0 1 111.281 138.867)" data-to="[&quot;GSL&quot;,&quot;LibCURL&quot;,&quot;Blink&quot;,&quot;HttpParser&quot;,&quot;Gumbo&quot;,&quot;MbedTLS&quot;,&quot;WinRPM&quot;,&quot;Homebrew&quot;]" data-from="[&quot;SHA&quot;,&quot;HttpParser&quot;,&quot;Gumbo&quot;,&quot;Cairo&quot;,&quot;GSL&quot;,&quot;URIParser&quot;]"><circle class="co2"/><text>BinDeps</text></g><g id="DataStructures" transform="matrix(1 0 0 1 157.883 59.3093)" data-to="[&quot;Primes&quot;,&quot;JSON&quot;]" data-from="[&quot;Primes&quot;]"><circle class="co2"/><text>DataStructures</text></g></svg>